<?xml version="1.0" standalone="no"?>
<!DOCTYPE svg PUBLIC "-//W3C//DTD SVG 20010904//EN"
 "http://www.w3.org/TR/2001/REC-SVG-20010904/DTD/svg10.dtd">
<svg version="1.0" xmlns="http://www.w3.org/2000/svg"
 width="590.000000pt" height="591.000000pt" viewBox="0 0 590.000000 591.000000"
 preserveAspectRatio="xMidYMid meet">

<g transform="translate(0.000000,591.000000) scale(0.100000,-0.100000)"
fill="#000000" stroke="none">
<path d="M535 5883 c-68 -37 -199 -161 -238 -226 -11 -18 -22 -34 -26 -37 -24
-20 -182 -410 -166 -410 2 0 -2 -18 -10 -40 -8 -22 -14 -43 -14 -45 0 -3 -5
-31 -12 -63 -6 -31 -13 -66 -14 -77 -2 -18 -17 -123 -30 -210 -24 -163 -24
-675 -1 -890 10 -91 16 -140 21 -175 2 -19 7 -55 10 -80 3 -25 7 -57 10 -71 3
-14 7 -41 9 -60 3 -19 6 -36 7 -39 1 -3 3 -9 4 -15 6 -36 18 -103 22 -120 2
-11 6 -33 9 -50 3 -16 10 -48 16 -70 6 -22 13 -49 15 -60 2 -17 12 -58 18 -75
1 -3 5 -18 9 -35 4 -16 10 -37 13 -45 4 -8 7 -19 8 -25 0 -5 4 -17 7 -25 19
-55 30 -88 34 -109 3 -14 7 -28 10 -33 3 -4 7 -16 9 -25 2 -10 16 -49 30 -88
15 -38 31 -83 36 -100 5 -16 18 -48 29 -70 11 -21 20 -45 20 -52 0 -7 25 -63
55 -124 55 -111 64 -139 45 -139 -5 0 -10 -7 -10 -15 0 -8 -4 -15 -10 -15 -5
0 -12 -11 -16 -25 -3 -14 -10 -25 -15 -25 -5 0 -9 -7 -9 -15 0 -8 -4 -15 -10
-15 -5 0 -10 -6 -10 -13 0 -7 -13 -39 -30 -71 -16 -32 -32 -74 -35 -93 -3 -19
-7 -38 -9 -42 -2 -3 -7 -31 -10 -61 -8 -70 -26 -140 -37 -140 -7 0 -13 -21
-25 -84 -3 -16 -18 -56 -33 -90 -26 -56 -37 -89 -49 -141 -7 -29 -5 -273 2
-325 3 -25 8 -61 10 -80 3 -19 9 -56 14 -82 5 -27 7 -48 4 -48 -2 0 1 -6 7
-14 6 -8 11 -18 10 -22 -2 -9 -1 -14 20 -74 7 -19 16 -48 21 -65 12 -45 140
-289 140 -269 1 5 8 -4 17 -20 18 -33 25 -44 70 -92 25 -27 39 -34 68 -34 33
0 35 2 25 20 -6 11 -8 20 -5 20 3 0 -1 13 -9 29 -9 16 -13 31 -9 34 3 4 -2 18
-11 32 -9 14 -20 35 -25 48 -8 19 -6 23 13 24 18 1 95 9 118 12 16 2 78 64 78
77 0 8 3 14 8 14 7 0 18 23 43 85 27 71 30 161 6 255 -10 41 -20 84 -21 96
-13 79 -157 264 -204 264 -11 0 -22 4 -24 9 -1 5 -30 13 -63 17 -101 12 -117
7 -175 -50 -27 -27 -26 -19 11 69 5 11 18 52 29 90 12 39 30 86 40 105 10 19
21 55 25 80 17 130 21 149 35 185 20 53 74 159 92 179 10 11 21 29 24 40 4 12
12 24 18 28 11 8 14 151 4 208 -12 65 -19 94 -24 102 -3 4 -7 16 -9 25 -2 10
-31 76 -64 146 -34 71 -61 132 -61 137 0 5 -11 33 -24 62 -14 29 -37 91 -51
138 -15 47 -33 98 -40 115 -8 16 -11 33 -8 38 2 4 0 14 -7 22 -6 7 -13 24 -15
37 -6 27 -10 43 -30 123 -9 33 -18 74 -21 90 -3 17 -11 55 -19 85 -7 30 -17
78 -21 105 -4 28 -8 55 -9 60 -1 6 -5 33 -9 60 -3 28 -8 61 -10 75 -3 14 -7
52 -11 85 -3 33 -8 78 -10 100 -24 227 -24 653 0 770 2 11 7 47 10 80 3 33 7
69 9 80 2 11 7 42 10 68 4 27 9 59 12 70 2 12 7 35 10 51 2 16 8 34 11 39 3 6
7 20 9 31 1 12 12 48 23 80 12 33 21 70 21 83 0 12 5 23 10 23 6 0 9 3 8 8 -2
12 66 158 104 223 36 60 120 144 198 199 19 14 37 27 40 30 14 14 29 6 39 -22
6 -17 18 -39 26 -48 21 -23 96 -176 101 -208 3 -14 7 -29 10 -34 3 -4 7 -16 9
-25 2 -10 12 -38 21 -63 9 -25 23 -70 30 -100 8 -30 16 -62 18 -70 14 -50 47
-190 52 -215 3 -16 12 -55 19 -85 7 -30 16 -68 19 -85 3 -16 8 -41 11 -55 3
-14 8 -38 10 -55 3 -16 7 -41 10 -55 11 -48 14 -65 18 -100 5 -37 23 -147 32
-190 3 -14 8 -50 11 -80 7 -62 11 -95 14 -95 1 0 3 -20 5 -45 1 -25 6 -63 10
-85 4 -22 8 -62 10 -90 2 -27 6 -84 9 -125 17 -197 17 -189 -17 -221 -18 -15
-37 -29 -43 -29 -6 0 -16 -16 -22 -36 -15 -50 5 -88 61 -115 l43 -21 -1 -62
c-2 -83 -16 -235 -23 -260 -13 -44 -10 -196 5 -253 8 -32 17 -66 18 -75 7 -34
56 -122 81 -145 26 -24 53 -25 94 -3 18 10 21 9 18 -2 -2 -7 -18 -19 -34 -27
-16 -7 -39 -23 -51 -34 -13 -11 -23 -17 -23 -12 0 5 -11 -2 -24 -14 -14 -13
-29 -21 -34 -17 -5 3 -22 -8 -37 -24 -16 -17 -34 -30 -41 -30 -15 0 -25 -38
-19 -71 5 -25 79 -99 100 -99 7 0 26 -7 41 -15 16 -8 37 -15 47 -15 9 0 17 -4
17 -8 0 -8 92 -52 110 -52 6 0 10 -4 10 -10 0 -5 5 -10 11 -10 6 0 43 -16 83
-35 40 -19 76 -35 80 -35 4 0 14 -6 22 -14 12 -13 9 -19 -21 -50 -18 -19 -35
-41 -36 -48 -12 -62 70 -93 223 -84 127 8 163 12 180 21 10 6 10 5 2 -4 -6 -7
-18 -13 -26 -15 -27 -3 -90 -65 -86 -84 7 -37 75 -56 208 -57 84 -1 136 3 158
12 17 7 32 11 32 8 0 -3 15 2 33 12 17 9 38 18 46 19 7 2 24 13 38 26 13 13
26 22 29 21 6 -4 64 30 95 55 16 13 29 21 29 17 0 -3 15 4 32 17 32 22 54 36
109 65 15 7 32 20 39 28 7 8 18 15 25 15 8 0 19 16 25 35 19 57 -1 92 -81 148
-39 26 -74 47 -79 47 -6 0 -26 9 -45 19 l-36 19 50 31 50 30 31 -27 c28 -25
100 -41 100 -23 0 4 16 13 35 20 19 7 41 18 48 26 8 7 47 30 88 50 41 21 77
43 81 49 4 6 8 8 8 3 0 -4 17 4 38 17 41 27 192 98 192 91 0 -3 35 12 78 34
42 21 99 46 125 55 26 9 65 25 86 36 21 10 41 17 44 14 3 -3 23 4 46 16 23 11
41 18 41 15 0 -3 10 0 22 6 13 7 32 14 43 15 11 2 40 10 65 20 25 9 54 18 65
20 11 2 30 6 43 8 12 3 27 8 34 12 7 4 24 8 38 9 14 1 45 8 70 15 56 17 68 19
104 25 15 2 35 7 45 9 9 3 32 8 51 10 20 3 47 7 60 10 23 5 75 12 160 22 139
16 577 23 668 10 87 -12 128 -18 162 -20 19 -2 35 -5 35 -6 0 -2 21 -5 93 -13
58 -6 71 -21 33 -37 -17 -7 -31 -16 -31 -20 0 -4 -13 -13 -30 -20 -16 -7 -30
-16 -30 -21 0 -5 -3 -8 -7 -7 -5 1 -28 -9 -53 -24 -25 -15 -63 -35 -85 -45
-22 -10 -44 -23 -50 -29 -13 -14 -416 -207 -432 -207 -7 0 -13 -4 -13 -9 0 -4
-7 -8 -15 -8 -9 0 -33 -9 -54 -20 -21 -10 -41 -17 -44 -14 -3 3 -19 -2 -36
-11 -17 -8 -31 -13 -31 -10 0 3 -10 0 -22 -6 -13 -7 -32 -14 -43 -15 -11 -2
-45 -12 -75 -24 -30 -12 -64 -23 -75 -25 -11 -2 -29 -6 -40 -9 -11 -3 -46 -12
-77 -20 -31 -7 -61 -16 -66 -20 -5 -3 -24 -8 -43 -10 -19 -3 -44 -7 -56 -11
-13 -3 -33 -7 -45 -10 -13 -3 -36 -8 -52 -10 -15 -2 -37 -7 -49 -11 -11 -3
-36 -8 -56 -10 -92 -10 -118 -13 -146 -19 -53 -12 -271 -25 -510 -31 -99 -2
-188 -4 -198 -5 -31 -1 -50 -45 -50 -117 0 -60 7 -132 20 -187 9 -42 12 -61
17 -100 6 -45 15 -114 22 -163 11 -79 13 -100 19 -152 4 -30 9 -68 11 -85 2
-16 6 -46 8 -65 4 -52 28 -153 39 -168 13 -16 10 -16 -59 11 -79 30 -158 26
-233 -12 -54 -28 -164 -140 -190 -194 -95 -199 -100 -362 -13 -456 l23 -25
-86 -44 c-48 -24 -89 -41 -92 -38 -3 3 -27 -6 -53 -19 -57 -29 -69 -55 -66
-146 4 -99 5 -102 21 -96 8 4 17 2 20 -4 4 -5 10 -7 15 -4 5 3 11 1 14 -4 4
-5 26 -1 54 9 26 10 63 24 82 30 54 19 210 93 210 100 0 4 16 14 36 23 19 10
40 22 47 27 7 6 35 27 62 47 66 49 73 55 96 78 42 43 109 120 109 127 0 4 6
13 13 20 39 41 92 179 102 263 8 72 5 220 -4 220 -2 0 -5 18 -7 40 -3 21 -9
44 -13 50 -8 9 -17 41 -28 95 -1 8 -5 40 -8 70 -4 30 -8 66 -10 80 -8 47 -14
95 -19 140 -3 25 -7 61 -10 80 -3 19 -7 55 -10 80 -3 25 -10 59 -15 77 -5 17
-7 34 -4 36 2 3 0 22 -6 43 -25 96 -28 91 52 92 118 2 429 13 477 16 40 4 84
8 195 21 55 6 120 15 145 21 14 3 40 7 59 10 19 2 38 7 43 10 5 3 24 8 41 11
18 2 77 16 132 29 55 14 107 26 115 27 20 3 121 35 190 59 30 10 66 21 79 24
13 3 32 9 43 15 10 5 18 7 18 4 0 -3 18 4 40 15 22 11 40 18 40 16 0 -3 17 2
37 10 20 9 44 17 52 19 35 7 519 253 536 272 5 6 34 21 63 33 28 13 52 26 52
30 0 4 12 12 28 19 15 7 43 23 62 35 116 75 186 121 190 126 3 3 23 17 46 33
22 15 73 58 114 96 79 73 78 70 20 86 -3 1 -23 10 -45 20 -22 9 -44 18 -50 20
-5 1 -18 5 -27 8 -10 4 -26 10 -35 14 -10 3 -22 7 -28 9 -5 1 -29 9 -53 18
-23 8 -43 15 -45 14 -1 -1 -19 4 -39 11 -21 7 -42 10 -47 7 -5 -4 -12 -2 -15
3 -5 7 -37 15 -151 36 -11 2 -21 4 -22 5 -2 2 -12 4 -23 5 -11 1 -21 3 -22 5
-2 1 -19 3 -38 5 -19 1 -35 3 -35 4 0 2 -52 8 -145 16 -25 2 -45 4 -45 5 0 3
-224 10 -290 10 -75 0 -254 -9 -305 -14 -25 -3 -71 -8 -104 -11 -32 -3 -62 -7
-66 -10 -4 -3 -29 -7 -56 -10 -26 -4 -51 -8 -54 -10 -3 -2 -28 -6 -54 -10 -27
-3 -52 -7 -56 -10 -4 -2 -22 -7 -41 -10 -19 -2 -70 -14 -114 -25 -44 -11 -88
-22 -98 -25 -9 -2 -22 -7 -28 -10 -5 -4 -20 -8 -32 -10 -41 -6 -65 -13 -95
-29 -16 -8 -32 -13 -35 -10 -3 3 -19 -1 -35 -10 l-30 -15 -7 47 c-5 38 -14 54
-47 85 -23 20 -47 37 -53 37 -7 0 -18 7 -25 15 -7 8 -21 15 -31 15 -9 0 -24 6
-31 14 -8 7 -23 16 -35 20 -12 4 -27 14 -35 23 -7 9 -8 14 -2 10 7 -4 17 0 24
8 7 8 18 15 25 15 6 0 30 13 52 29 23 16 43 28 46 25 2 -3 25 9 50 26 25 17
61 37 80 45 18 7 39 21 47 29 7 9 18 16 26 16 7 0 40 16 73 35 32 19 64 35 69
35 5 0 17 9 27 20 10 11 23 20 29 20 6 0 38 16 71 36 33 20 65 37 71 38 5 1
23 11 38 23 15 12 37 25 49 29 12 3 30 13 39 22 10 8 18 11 18 7 0 -5 11 2 24
14 13 12 30 23 38 24 7 2 28 13 45 25 17 12 38 22 45 22 8 0 23 9 33 20 10 11
21 18 23 15 3 -3 16 5 29 17 12 12 26 18 30 15 3 -4 16 1 27 11 26 23 166 103
186 107 22 3 71 90 72 127 1 18 -2 49 -6 68 -4 19 -8 44 -10 56 -2 12 -11 35
-20 52 -9 18 -13 32 -10 32 4 0 -1 9 -10 19 -10 11 -19 25 -20 33 -1 7 -7 23
-14 35 -7 12 -12 29 -12 38 0 9 -9 30 -21 46 -11 16 -18 29 -16 29 9 0 -34
105 -50 123 -9 9 -13 17 -10 17 4 0 -8 24 -25 53 -17 28 -36 61 -42 72 -15 29
-55 80 -93 121 -18 19 -33 39 -33 44 0 5 -13 17 -30 27 -16 9 -30 23 -30 30 0
7 -4 13 -8 13 -5 0 -22 12 -39 28 -70 61 -85 74 -109 84 -13 6 -24 17 -24 25
0 7 -6 13 -12 13 -11 0 -83 43 -113 68 -24 19 -158 82 -176 82 -10 0 -19 4
-19 9 0 19 -162 29 -290 17 -106 -9 -125 -12 -139 -20 -7 -5 -22 -9 -34 -11
-63 -9 -209 -94 -244 -142 -27 -37 -237 -248 -245 -246 -3 1 -18 -13 -33 -33
-14 -19 -29 -33 -33 -30 -4 2 -20 -14 -37 -35 -16 -21 -35 -38 -42 -39 -6 0
-23 -13 -36 -30 -14 -16 -30 -30 -36 -30 -6 0 -20 -13 -33 -30 -12 -16 -28
-30 -35 -30 -7 0 -22 -13 -35 -30 -12 -16 -26 -30 -32 -30 -6 0 -22 -11 -36
-25 -45 -43 -110 -97 -110 -91 0 4 -14 -9 -31 -29 -18 -20 -34 -34 -36 -31 -3
2 -18 -11 -35 -30 -17 -19 -36 -34 -43 -34 -8 0 -23 -13 -35 -30 -12 -16 -27
-30 -35 -30 -7 0 -25 -14 -39 -31 -14 -17 -26 -27 -26 -24 0 4 -18 -9 -40 -29
-22 -20 -43 -36 -48 -36 -4 0 -27 -19 -52 -41 -25 -22 -64 -54 -88 -70 -23
-17 -42 -35 -42 -41 0 -6 -3 -8 -6 -5 -4 4 -14 -1 -23 -11 -9 -9 -38 -33 -64
-52 -27 -19 -63 -47 -82 -62 -18 -16 -37 -28 -42 -28 -5 0 -22 -13 -38 -30
-16 -16 -31 -27 -34 -25 -2 3 -22 -11 -43 -32 -21 -20 -38 -33 -38 -29 0 5
-18 -8 -40 -28 -42 -38 -59 -44 -61 -23 0 6 -2 28 -4 47 -2 19 -6 60 -9 90 -3
30 -7 73 -10 95 -3 22 -7 65 -10 95 -3 30 -8 66 -10 80 -7 40 -17 102 -21 140
-5 37 -16 115 -21 140 -2 8 -6 35 -9 59 -3 25 -8 48 -10 51 -2 4 -7 29 -10 57
-3 27 -8 60 -11 74 -3 13 -7 38 -10 54 -3 17 -12 55 -19 85 -7 30 -16 70 -19
88 -3 17 -9 47 -12 65 -3 17 -10 50 -16 72 -5 22 -10 40 -10 40 1 0 -18 78
-23 95 -3 8 -10 38 -16 65 -6 28 -16 55 -21 62 -5 7 -7 16 -4 22 4 5 2 20 -3
33 -21 52 -25 64 -26 78 0 8 -6 26 -12 40 -6 14 -18 48 -26 75 -23 74 -62 173
-91 232 -14 29 -26 57 -26 61 0 5 -8 17 -19 28 -25 27 -42 60 -47 92 -3 15
-11 32 -19 38 -8 6 -15 16 -15 22 0 7 -56 35 -64 32 -1 -1 -14 -8 -31 -17z
m2915 -893 c0 -4 14 -13 30 -20 17 -7 30 -16 30 -20 0 -3 22 -21 50 -39 27
-18 55 -40 62 -50 7 -9 28 -26 46 -36 17 -11 32 -22 32 -26 0 -4 27 -35 60
-70 33 -34 60 -68 60 -74 0 -6 14 -24 30 -40 17 -16 30 -37 30 -46 0 -10 5
-21 10 -24 8 -5 49 -83 55 -105 1 -3 14 -32 29 -65 16 -33 29 -67 31 -76 2 -9
8 -25 13 -35 15 -30 39 -88 40 -97 0 -4 7 -18 14 -30 14 -22 33 -85 41 -141 5
-31 -11 -79 -23 -71 -4 3 -13 -2 -20 -10 -7 -8 -18 -15 -24 -15 -7 0 -28 -12
-47 -26 -19 -14 -47 -32 -64 -39 -30 -14 -44 -23 -97 -58 -16 -10 -28 -16 -28
-12 0 3 -16 -6 -35 -21 -19 -14 -35 -23 -35 -19 0 4 -15 -4 -34 -18 -18 -15
-36 -24 -38 -21 -3 2 -11 -2 -18 -11 -7 -8 -18 -15 -25 -15 -6 0 -30 -13 -52
-29 -23 -16 -44 -27 -47 -24 -3 4 -16 -2 -29 -13 -12 -11 -47 -33 -77 -48 -30
-16 -64 -37 -76 -48 -11 -10 -23 -15 -27 -11 -4 3 -15 0 -24 -8 -10 -8 -43
-28 -73 -43 -30 -16 -60 -33 -66 -38 -6 -4 -31 -19 -55 -32 -138 -73 -231
-126 -245 -137 -6 -5 -13 -7 -16 -4 -3 3 -13 -4 -23 -15 -10 -11 -25 -20 -33
-20 -8 0 -30 -11 -48 -25 -18 -14 -37 -25 -43 -25 -5 0 -12 -9 -16 -20 -9 -27
21 -68 56 -75 16 -4 29 -10 29 -15 0 -5 13 -11 29 -15 16 -3 35 -13 42 -21 6
-8 20 -14 30 -14 10 0 20 -4 23 -9 4 -5 26 -19 51 -31 51 -25 65 -53 39 -81
-9 -10 -21 -19 -26 -19 -5 0 -24 -11 -42 -25 -18 -14 -36 -25 -39 -25 -3 0
-26 -13 -50 -30 -25 -16 -48 -30 -52 -30 -4 0 -30 -17 -58 -37 -29 -21 -54
-38 -57 -37 -6 1 -77 -40 -134 -78 -48 -32 -58 -34 -91 -12 -14 9 -25 12 -25
8 0 -5 -5 -2 -10 6 -5 8 -14 15 -20 15 -6 0 -14 5 -18 10 -4 6 -13 11 -21 13
-8 2 -30 10 -50 19 -20 9 -40 17 -46 18 -5 2 -23 8 -40 15 -29 11 -29 12 -10
23 11 6 26 12 34 13 7 2 24 13 37 25 13 12 24 19 24 15 0 -4 15 3 33 16 17 13
33 22 35 20 1 -1 14 11 28 27 39 46 30 80 -38 143 -31 29 -71 62 -90 73 -80
48 -147 86 -198 113 -115 61 -125 67 -130 74 -3 3 -18 10 -33 13 -15 4 -27 11
-27 15 0 5 -13 11 -30 15 -16 4 -32 10 -35 15 -6 10 -109 60 -124 60 -5 0 -11
4 -13 8 -4 11 -86 52 -103 52 -8 0 -15 5 -15 10 0 6 -10 10 -22 10 -22 1 -21
2 7 25 17 13 38 31 48 40 9 8 23 15 30 15 7 0 26 13 42 30 15 16 31 27 35 25
4 -2 20 9 35 25 16 17 33 30 38 30 5 0 24 12 42 28 18 15 69 54 114 86 44 32
81 62 81 65 1 3 24 22 52 41 28 19 65 47 83 63 18 15 37 27 41 27 5 0 20 14
33 30 13 17 28 30 33 30 11 0 65 45 124 101 17 16 33 27 36 24 3 -3 19 10 36
29 16 19 32 33 34 30 3 -2 17 10 33 26 16 17 33 30 38 30 4 0 20 14 34 30 13
17 31 30 39 30 7 0 23 14 36 30 12 17 27 30 34 30 7 0 24 14 37 30 14 17 29
30 34 30 4 0 22 13 38 30 17 16 68 62 115 101 47 39 95 81 107 93 12 11 37 34
55 49 18 16 65 58 103 94 39 37 73 66 76 65 4 -1 17 14 30 33 13 19 29 35 34
36 6 0 32 26 60 58 34 40 55 57 67 53 10 -2 18 -8 18 -12z m-2135 -1800 c39
-19 72 -38 75 -41 3 -4 16 -10 30 -14 14 -4 27 -11 30 -14 3 -3 32 -19 65 -36
33 -16 62 -32 65 -36 3 -4 18 -11 33 -14 15 -4 27 -11 27 -15 0 -4 12 -13 28
-19 41 -18 85 -43 100 -58 7 -7 17 -13 22 -13 5 0 20 -10 34 -22 13 -13 34
-30 45 -38 12 -8 21 -18 21 -23 0 -14 -43 -46 -61 -47 -9 0 -22 -6 -28 -14
-10 -12 -83 -16 -111 -6 -9 3 -214 0 -250 -4 -87 -10 -135 -18 -149 -26 -9 -4
-20 -9 -26 -9 -27 -4 -62 -13 -83 -22 -13 -5 -21 -5 -18 -1 3 5 8 22 10 38 3
16 8 40 11 54 9 43 17 161 20 275 4 166 3 155 23 147 9 -4 49 -23 87 -42z m40
-680 c-3 -5 -12 -10 -18 -10 -7 0 -6 4 3 10 19 12 23 12 15 0z m661 -17 c9 -3
26 -7 38 -8 12 -1 29 -5 39 -8 25 -10 47 -17 50 -16 1 1 18 -5 37 -13 19 -8
39 -15 45 -16 21 -1 14 -21 -15 -42 -16 -12 -30 -18 -30 -14 0 4 -10 -1 -22
-12 -30 -26 -105 -74 -116 -74 -5 0 -17 -9 -27 -20 -10 -11 -26 -20 -35 -20
-23 0 -83 -68 -76 -86 3 -8 17 -19 31 -26 14 -6 25 -15 25 -20 0 -4 7 -8 15
-8 16 0 167 -69 175 -80 3 -4 15 -12 28 -19 29 -16 28 -29 -5 -43 -16 -7 -41
-23 -56 -35 -16 -13 -32 -21 -36 -18 -5 2 -19 -7 -31 -20 -13 -14 -31 -25 -39
-25 -9 0 -12 3 -6 8 26 19 54 60 60 89 6 29 2 37 -34 73 -22 22 -47 40 -56 40
-8 0 -15 4 -15 9 0 5 -13 12 -30 16 -16 4 -30 11 -30 16 0 5 -6 9 -12 9 -7 1
-31 9 -53 20 -22 11 -46 19 -52 20 -7 0 -13 4 -13 9 0 5 -13 12 -30 16 -16 4
-30 11 -30 15 0 5 -16 12 -35 16 -19 3 -35 10 -35 15 0 5 -7 9 -15 9 -14 0
-72 25 -84 36 -6 6 30 44 42 44 5 0 21 9 37 20 15 11 29 17 32 15 2 -3 15 6
28 20 13 14 31 25 40 25 9 0 27 11 40 25 13 14 26 23 28 20 3 -2 17 3 31 13
62 40 66 42 123 37 32 -3 65 -8 74 -12z m-1471 -1477 c11 -4 32 -14 48 -22 15
-8 27 -12 27 -8 0 14 61 -70 66 -92 13 -51 -49 -165 -104 -193 -37 -19 -142
-25 -158 -8 -4 4 -16 7 -26 7 -10 0 -18 5 -18 10 0 6 -5 10 -10 10 -6 0 -22
12 -36 27 -22 23 -25 35 -23 90 1 35 6 66 11 69 4 3 8 13 8 23 0 17 50 70 83
88 19 10 102 10 132 -1z m2430 -198 c7 -7 -26 -78 -37 -78 -4 0 -8 -6 -8 -14
0 -7 -26 -41 -57 -74 -71 -74 -158 -119 -223 -117 -50 1 -90 18 -71 29 6 4 11
14 11 21 0 23 65 117 105 153 19 17 61 45 93 62 48 24 67 29 119 26 34 -1 65
-5 68 -8z"/>
</g>
</svg>
